<svg id="Layer_1" data-name="Layer 1" xmlns="http://www.w3.org/2000/svg" viewBox="0 0 225 81">
  <defs>
    <style>
      .cls-1 {
        fill: #fff;
      }
    </style>
  </defs>
  <g>
    <path d="M118.34,63c-11.92,0-19.34-9.12-19.34-20.63s7.67-20.53,19.34-20.53,19.34,8.92,19.34,20.53-7.41,20.63-19.34,20.63ZM118.34,29.35c-7.21,0-11.46,6.38-11.46,12.7s3.01,13.43,11.46,13.43,11.46-7.41,11.46-13.43c0-6.33-4.25-12.7-11.46-12.7Z"/>
    <path d="M148.46,61.96h-7.26V18h7.26v43.96Z"/>
    <path d="M178.59,49.26c0,7.88-5.39,13.53-13.38,13.53s-13.38-5.65-13.38-13.53,5.44-13.58,13.38-13.58,13.38,5.65,13.38,13.58ZM159.2,49.26c0,3.42,2.28,7.1,6.01,7.1s6.01-3.68,6.01-7.1-2.28-7.15-6.01-7.15-6.01,3.63-6.01,7.15Z"/>
    <path d="M189.27,38.84h.1c1.5-2.28,4.04-3.16,6.64-3.16,6.84,0,8.81,4.82,8.81,10.73v15.55h-7.26v-13.48c0-3.06.16-7-3.94-7-4.3,0-4.35,4.82-4.35,7.88v12.6h-7.26v-25.46h7.26v2.33Z"/>
  </g>
  <path class="cls-1" d="M40.5,9c-17.37,0-31.5,14.13-31.5,31.5s14.13,31.5,31.5,31.5,31.5-14.13,31.5-31.5-14.13-31.5-31.5-31.5ZM40.5,61.64c-11.66,0-21.14-9.48-21.14-21.14s9.48-21.14,21.14-21.14,21.14,9.48,21.14,21.14-9.48,21.14-21.14,21.14Z"/>
  <g>
    <path d="M0,0v81h81V0H0ZM40.5,72c-17.37,0-31.5-14.13-31.5-31.5s14.13-31.5,31.5-31.5,31.5,14.13,31.5,31.5-14.13,31.5-31.5,31.5Z"/>
    <path d="M40.5,19.36c-11.66,0-21.14,9.48-21.14,21.14s9.48,21.14,21.14,21.14,21.14-9.48,21.14-21.14-9.48-21.14-21.14-21.14Z"/>
  </g>
</svg>